PathFileType	4	(X/Y/Z)	Patient4_TMGait_0pt8_01_left_28.trc.trc
DataRate	CameraRate	NumFrames	NumMarkers	Units	OrigDataRate	OrigDataStartFrame	OrigNumFrames
93.333333333334	93.333333333334	5	33	mm	93.333333333334	89	       141
Frame#	Time	Sacral			L.Shoulder			Chest			R.Shoulder			Neck			R.ASIS			L.ASIS			R.Thigh.Superior			R.Thigh.Lateral			R.Thigh.Inferior			R.Patella			L.Thigh.Superior			L.Thigh.Lateral			L.Thigh.Inferior			L.Patella			L.Shank.Superior			L.Shank.Lateral			L.Shank.Inferior			R.Shank.Superior			R.Shank.Lateral			R.Shank.Inferior			R.Heel			R.Midfoot.Superior			R.Midfoot.Lateral			R.Toe			L.Heel			L.Midfoot.Lateral			L.Midfoot.Superior			L.Toe			L.Elbow			L.Wrist			R.Elbow			R.Wrist			
		X1	Y1	Z1	X2	Y2	Z2	X3	Y3	Z3	X4	Y4	Z4	X5	Y5	Z5	X6	Y6	Z6	X7	Y7	Z7	X8	Y8	Z8	X9	Y9	Z9	X10	Y10	Z10	X11	Y11	Z11	X12	Y12	Z12	X13	Y13	Z13	X14	Y14	Z14	X15	Y15	Z15	X16	Y16	Z16	X17	Y17	Z17	X18	Y18	Z18	X19	Y19	Z19	X20	Y20	Z20	X21	Y21	Z21	X22	Y22	Z22	X23	Y23	Z23	X24	Y24	Z24	X25	Y25	Z25	X26	Y26	Z26	X27	Y27	Z27	X28	Y28	Z28	X29	Y29	Z29	X30	Y30	Z30	X31	Y31	Z31	X32	Y32	Z32	X33	Y33	Z33	

89	31.702857142857	896.767870677769	985.445063364849	535.932031486840	1076.227894232541	1421.428797707707	368.023092702327	1173.681948002328	1347.651573019082	531.511619463275	1082.922382446943	1416.803338973205	703.719532390492	1061.288901647159	1479.198811296070	524.864981799418	1123.619521773106	930.892908327210	661.679116060384	832.786325525599	704.922634497551	286.241130050715	1198.812026086976	746.602916543781	636.350036873193	1135.936564804370	626.506447912075	688.267631794852	1227.381559830945	589.006849176057	613.375545833791	1244.477339598016	496.219123117395	619.573473051011	1170.619577233661	733.832098266080	407.370119623809	1095.065587982733	616.088404764224	332.711897450284	1189.084361927351	535.015199405624	387.649394777515	1183.111429338659	446.057719292006	381.426731930789	1105.942572071426	390.942387471732	372.725750955876	959.248457640158	373.920198198531	323.854833831556	926.113703122429	247.870974034259	376.546135146607	1212.319918956421	404.245718067525	622.271010503271	1137.553105361097	300.317486802879	681.059388509015	1179.117937379186	206.439948556492	616.514629311459	1041.376277430648	44.170391501021	581.194468962018	1213.147381613843	98.686553791052	619.244357357271	1124.084226800213	37.394376462786	656.779461691728	1332.146122862125	45.764623471205	648.520361102967	725.628583094871	206.276645737214	414.618260742336	777.699365838270	165.940093077850	327.942031672109	883.722723050494	159.808510869952	348.788518922945	949.209483905090	45.970384388172	304.151052700720	1101.364061744508	1072.064160960187	250.391498705883	1350.043675494801	1041.123439057564	299.168227696928	977.572883869386	1083.670975526434	809.008479311135	978.058458936454	822.541364968040	819.389579915514	
90	31.713571428571	895.630583679062	987.844646102152	538.925409948030	1074.228873973749	1423.362631762499	369.815284452645	1173.281524439906	1349.276339932082	532.228003663391	1084.571397134488	1418.457031580187	705.466860237961	1060.934319552323	1481.116366225703	526.891032375340	1122.983636803799	932.505550162895	663.095970159991	814.199511058982	692.891683573568	281.385066480730	1195.420020513712	746.142294122169	638.220838608331	1130.955605406909	626.965178306103	689.722401314392	1221.794095686512	588.381623703673	614.642995343175	1237.615085623349	495.527881256897	620.754463763446	1172.510034414410	738.791790550405	408.704942080070	1099.605773114492	619.831276513712	333.655962055406	1196.125174101766	540.788231427115	387.638431683606	1192.172845662977	451.369398626211	381.163249785183	1115.273995535728	395.443245391998	372.778299415064	968.148252848403	378.182327397305	325.369211284913	936.126853186493	251.678431803690	377.529590675856	1204.855977876980	404.040791415346	623.303024442715	1129.589509842979	300.347664736039	681.713986067420	1170.958035485715	206.471017228691	617.094748483779	1032.793488196938	44.259798797287	581.326315900842	1204.739400612968	98.771048848070	619.666804698007	1115.527545520860	37.392295671902	656.847320320974	1323.595803026016	45.522720229587	648.632866914894	736.394844677607	208.908241985667	417.511206129836	787.649227403103	169.659530423553	329.850316221049	893.836492448153	163.675810614892	349.554168170378	959.129782568403	49.691580406978	302.916091434860	1094.351872218134	1072.977948569352	253.382995346919	1342.026816133481	1028.221825272441	298.598373186104	985.068068258792	1083.120777870267	811.621467464143	993.300146281941	821.906722469399	820.392937579872	
91	31.724285714286	894.368084798876	990.217414961295	541.816423890134	1072.133421491503	1425.237339183752	371.521973361356	1172.783834597364	1350.861562248609	532.848879088565	1086.175044041363	1420.138069355386	707.089253229039	1060.478091746388	1483.019481823684	528.781329199434	1122.224840202592	934.064049703367	664.434187886441	821.559583502536	703.135091448685	285.545168792192	1191.895749986335	745.821972632975	639.787598006989	1125.844388374238	627.478337064228	691.071236008489	1216.075413161497	587.812111268204	615.844418282875	1230.612561724089	494.928577404862	621.886528408811	1174.023213261230	743.894923249418	409.874024819294	1103.655552646072	623.861351005677	334.387568728616	1202.520066572431	546.850470774018	387.394471022771	1200.683134158069	457.102833649251	380.656325365410	1124.405794949498	400.140201699675	372.615409648642	977.082225068630	381.557143307994	326.541480171772	946.999688490727	254.462725980627	378.215894903887	1197.312570347475	403.917051569097	624.292015770371	1121.536733473894	300.455968663079	682.323505635347	1162.763448127843	206.558817781043	617.654687073866	1024.171321605494	44.383062078802	581.439039959306	1196.341644255849	98.850957938386	620.103446304134	1106.938888886265	37.408067799090	656.893809810037	1315.020184614184	45.248133636981	648.723959549601	748.344448037872	208.989422111860	419.900723594512	799.195074744616	171.103762374415	331.413236999498	905.484531402759	166.280764551829	350.065367139133	971.613851153513	53.126547765688	301.785216048336	1087.377256228445	1073.982461732984	256.131780279226	1333.069977571452	1014.578711136273	297.762025685683	992.850453151615	1082.619734491093	814.100248057278	1009.347528565555	821.611446416465	821.284648771487	
92	31.735000000000	893.006259895067	992.524257890834	544.611515756810	1069.973370455004	1427.027256477999	373.154673769426	1172.191363988633	1352.387414532502	533.405109041638	1087.697879771084	1421.831481834919	708.595412198614	1059.920678002003	1484.875740368463	530.540287126418	1121.357462059898	935.559944984734	665.691449760365	852.646081315200	733.703400825143	298.031218403554	1188.277114428382	745.631426550776	641.087790391000	1120.635769282125	628.032526488640	692.326305691736	1210.264644593905	587.293781674835	616.995676155371	1223.516587282199	494.414451986789	622.982261284416	1175.185958348493	749.069190119269	410.882241682998	1107.291845150126	628.084051264003	334.905538411274	1208.318262834845	553.092955205495	386.965661686153	1208.659896091079	463.156470414725	379.951123642184	1133.348563279871	404.935853830863	372.271836668385	986.078015025415	384.001045715366	327.350348404752	958.708823317371	256.212591508865	378.598618757365	1189.732949619414	403.863943358166	625.248431291759	1113.426116356624	300.637403858610	682.899679284302	1154.551253624794	206.694077508398	618.201425863820	1015.523011201394	44.540236734377	581.536974540571	1187.956678256119	98.937183628991	620.544792349343	1098.331640429858	37.441415347768	656.924133485167	1306.428479704347	44.959682382463	648.800890704703	761.430723317488	206.702101502070	421.714086926191	812.272567423331	170.370458870271	332.577630375406	918.608799576898	167.582740631804	350.318189330202	986.483755530675	56.049447933820	300.788737323844	1080.460949389077	1075.046722845247	258.646227661822	1323.093874016942	1000.331988470375	296.657970058214	1000.892136399395	1082.170827722232	816.426867842639	1026.166550227145	821.718650922650	822.021187623222	
93	31.745714285714	891.576827986991	994.729385527964	547.316064605237	1067.772543970805	1428.708900292528	374.720865093952	1171.504834438820	1353.835783374589	533.920273092530	1089.105931285439	1423.513420781299	709.995217336443	1059.261704106484	1486.653794087637	532.175912024581	1120.392162316527	936.983577960095	666.857866124912	900.217253538484	778.350319718763	316.394718331552	1184.584789506482	745.548488092463	642.160857043450	1115.362078854372	628.613755253871	693.504732021556	1204.392428597250	586.820424566194	618.110082298818	1216.363779920775	493.975228207433	624.058319123921	1176.024359938080	754.241829999296	411.737836868921	1110.580436538454	632.407103040180	335.216865617798	1213.561532527791	559.407471553520	386.409085153051	1216.112755143612	469.427134934840	379.099933673513	1142.098697513898	409.745918696503	371.780747778075	995.150382249853	385.514601171140	327.799342532248	971.212073786471	256.967557729579	378.680180920746	1182.150165072756	403.867101463612	626.184849334217	1105.284568268277	300.881390368842	683.453411082199	1146.336746626940	206.865362396716	618.741464346137	1006.864133465855	44.731698551502	581.621871042292	1179.585650242138	99.034794760465	620.977726891872	1089.719255074314	37.490868906614	656.942128098091	1297.830895305135	44.670752610161	648.869699700503	775.620780135969	202.284523175192	422.925428832118	826.801249782243	167.646354440204	333.312503603644	933.121351501823	167.624183340761	350.306178589733	1003.507018116859	58.327810934872	299.899627468145	1073.607517613211	1076.137055178458	260.940063888081	1312.025653829854	985.650076519045	295.296462221666	1009.171281279002	1081.770389763226	818.596211901299	1043.736755857980	822.284552352306	822.544052463164	
